<?xml version="1.0" encoding="UTF-8"?>
<svg width="195px" height="139px" viewBox="0 0 195 139" version="1.1" xmlns="http://www.w3.org/2000/svg" xmlns:xlink="http://www.w3.org/1999/xlink">
    <g id="Page-1" stroke="none" stroke-width="1" fill="none" fill-rule="evenodd">
        <g id="Site-logo">
            <polygon id="Shape" fill="#e83d3b" fill-rule="nonzero" points="189.24 86.06 153.65 80.27 125.27 51.9 125.27 75.66 104.2 72.24 104.2 35.29 72.42 67.07 47.91 63.09 47.91 52.28 19.34 50.38 19.34 58.44 0.17 55.35 0.17 30.62 19.34 27.52 19.34 35.04 47.91 33.13 47.91 22.87 68.99 19.45 68.99 40.69 94.37 15.32 125.27 10.3 125.27 33.56 153.05 5.78 188.64 0 145.91 42.73"></polygon>
            <g id="Group" transform="translate(0.000000, 94.000000)" fill="#e83d3b" fill-rule="nonzero">
                <polygon id="Shape" points="1.19 0.31 1.19 4.16 5.6 4.16 5.6 0.31 6.8 0.31 6.8 9.51 5.6 9.51 5.6 5.2 1.15 5.2 1.15 9.51 0 9.51 0 0.31"></polygon>
                <path d="M11.07,6.62 L10.12,9.51 L8.89,9.51 L12.02,0.31 L13.45,0.31 L16.59,9.51 L15.32,9.51 L14.32,6.62 L11.07,6.62 Z M14.07,5.69 L13.17,3.04 C12.97,2.44 12.83,1.89 12.69,1.36 C12.56,1.91 12.41,2.47 12.23,3.03 L11.33,5.69 L14.07,5.69 Z" id="Shape"></path>
                <polygon id="Shape" points="19.81 0.31 19.81 8.52 24.03 8.52 24.03 0.31 25.23 0.31 25.23 8.54 26.04 8.54 25.96 11.7 25.02 11.7 24.93 9.48 18.6 9.48 18.6 0.28"></polygon>
                <path d="M29.33,0.31 L29.33,4.19 C29.33,5.65 29.33,6.85 29.22,8.08 C29.68,7.08 30.22,6.08 30.92,5.08 L33.92,0.34 L35.11,0.34 L35.11,9.54 L34,9.54 L34,5.62 C34,4.14 34,3.04 34.11,1.88 C33.607524,2.94916703 33.0363284,3.98466768 32.4,4.98 L29.52,9.55 L28.25,9.55 L28.25,0.35 L29.33,0.31 Z" id="Shape"></path>
                <path d="M45.74,4.82 C45.74,7.99 43.82,9.66 41.47,9.66 C39.12,9.66 37.33,7.78 37.33,4.99 C37.33,2.2 39.15,0.16 41.6,0.16 C44.05,0.16 45.74,2.11 45.74,4.82 Z M38.6,4.97 C38.6,6.97 39.66,8.69 41.54,8.69 C43.42,8.69 44.49,6.96 44.49,4.87 C44.49,3.04 43.49,1.13 41.55,1.13 C39.61,1.13 38.6,2.95 38.6,4.97 Z" id="Shape"></path>
                <polygon id="Shape" points="49.15 0.31 49.15 4.16 53.6 4.16 53.6 0.31 54.8 0.31 54.8 9.51 53.6 9.51 53.6 5.2 49.14 5.2 49.14 9.51 47.96 9.51 47.96 0.31"></polygon>
                <path d="M59.04,6.62 L58.04,9.51 L56.82,9.51 L59.94,0.31 L61.38,0.31 L64.52,9.51 L63.25,9.51 L62.25,6.62 L59.04,6.62 Z M62.04,5.69 L61.14,3.04 C60.93,2.44 60.8,1.89 60.66,1.36 C60.52,1.91 60.38,2.47 60.2,3.03 L59.3,5.69 L62.04,5.69 Z" id="Shape"></path>
                <path d="M73.1,0.31 L73.1,9.51 L71.9,9.51 L71.9,1.31 L68.9,1.31 L68.9,4.11 C68.9,6.11 68.82,8.33 67.52,9.21 C67.0956474,9.47407622 66.609499,9.62233425 66.11,9.64 L65.96,8.69 C66.3302815,8.61643328 66.6749647,8.44753853 66.96,8.2 C67.7,7.47 67.77,5.68 67.77,4.2 L67.77,0.31 L73.1,0.31 Z" id="Shape"></path>
                <path d="M77.04,0.31 L77.04,3.75 C77.4150578,3.70551515 77.7923194,3.68214497 78.17,3.68 C80.05,3.68 81.72,4.52 81.72,6.55 C81.7571293,7.28432651 81.501838,8.00345689 81.01,8.55 C80.0913219,9.3307349 78.9023531,9.7186764 77.7,9.63 C77.0816261,9.63254846 76.4637149,9.5958078 75.85,9.52 L75.85,0.31 L77.04,0.31 Z M77.04,8.6 C77.370394,8.65469719 77.7052078,8.67813415 78.04,8.67 C79.36,8.67 80.5,8.03 80.5,6.62 C80.5,5.21 79.34,4.62 78.02,4.62 C77.68572,4.61835645 77.3516853,4.63839852 77.02,4.68 L77.04,8.6 Z" id="Shape"></path>
                <polygon id="Shape" points="85.12 0.31 85.12 4.16 89.6 4.16 89.6 0.31 90.8 0.31 90.8 9.51 89.6 9.51 89.6 5.2 85.15 5.2 85.15 9.51 83.96 9.51 83.96 0.31"></polygon>
                <path d="M95,6.62 L94.05,9.51 L92.82,9.51 L95.95,0.31 L97.38,0.31 L100.52,9.51 L99.25,9.51 L98.25,6.62 L95,6.62 Z M98,5.69 L97.1,3.04 C96.9,2.44 96.76,1.89 96.62,1.36 C96.48,1.91 96.33,2.47 96.15,3.03 L95.25,5.69 L98,5.69 Z" id="Shape"></path>
                <path d="M101.72,9.51 C101.866824,9.24441444 101.990611,8.96673118 102.09,8.68 C102.349039,7.56976584 102.821101,6.52036198 103.48,5.59 C103.69853,5.3803483 103.961817,5.22306 104.25,5.13 C103.105029,4.98832303 102.246328,4.01369706 102.25,2.86 C102.232976,2.13958565 102.546028,1.45087064 103.1,0.99 C103.876839,0.466951734 104.805596,0.217172339 105.74,0.28 C106.474276,0.276196396 107.207351,0.339796509 107.93,0.47 L107.93,9.55 L106.75,9.55 L106.75,5.55 L105.87,5.55 C105.386351,5.50815343 104.907374,5.67144115 104.55,6 C103.97628,6.87670894 103.563172,7.8485288 103.33,8.87 C103.249026,9.09816153 103.14866,9.31896848 103.03,9.53 L101.72,9.51 Z M106.72,1.27 C106.351996,1.19130178 105.976283,1.15440144 105.6,1.16 C104.42,1.16 103.43,1.61 103.43,2.88 C103.43,3.98 104.43,4.63 105.71,4.63 C106.1,4.63 106.48,4.63 106.71,4.63 L106.72,1.27 Z" id="Shape"></path>
                <path d="M1.12,16.69 L1.12,20.57 C1.12,22.03 1.12,23.24 1.01,24.47 C1.47,23.47 2.01,22.52 2.71,21.42 L5.71,16.68 L6.9,16.68 L6.9,25.89 L5.78,25.89 L5.78,21.97 C5.78,20.48 5.78,19.39 5.89,18.23 C5.38752395,19.299167 4.81632844,20.3346677 4.18,21.33 L1.3,25.91 L0,25.91 L0,16.7 L1.12,16.69 Z" id="Shape"></path>
                <polygon id="Shape" points="10.85 16.69 10.85 20.55 15.31 20.55 15.31 16.69 16.51 16.69 16.51 25.9 15.31 25.9 15.31 21.58 10.85 21.58 10.85 25.9 9.67 25.9 9.67 16.69"></polygon>
                <path d="M19.89,16.69 L22.75,20.78 L23.1,20.78 L23.1,16.69 L24.26,16.69 L24.26,20.78 L24.6,20.78 L27.44,16.69 L28.84,16.69 L25.6,20.93 C27.05,21.08 27.6,21.98 28.09,23.29 C28.4,24.16 28.62,25.05 29,25.9 L27.79,25.9 C27.4873539,25.1972277 27.2301578,24.4757426 27.02,23.74 C26.6,22.49 26.13,21.68 24.66,21.68 L24.26,21.68 L24.26,25.9 L23.1,25.9 L23.1,21.68 L22.69,21.68 C21.22,21.68 20.75,22.49 20.32,23.74 C20.1154724,24.4737544 19.8683874,25.1949753 19.58,25.9 L18.36,25.9 C18.7124492,25.0502201 19.0195478,24.1823327 19.28,23.3 C19.74,22.01 20.28,21.11 21.76,20.93 L18.5,16.69 L19.89,16.69 Z" id="Shape"></path>
                <path d="M31.99,16.69 L31.99,20.57 C31.99,22.03 31.99,23.24 31.88,24.47 C32.34,23.47 32.88,22.52 33.59,21.42 L36.59,16.68 L37.78,16.68 L37.78,25.89 L36.66,25.89 L36.66,21.97 C36.66,20.48 36.66,19.39 36.77,18.23 C36.267524,19.299167 35.6963284,20.3346677 35.06,21.33 L32.18,25.91 L30.91,25.91 L30.91,16.7 L31.99,16.69 Z" id="Shape"></path>
                <polygon id="Shape" points="41.73 16.69 41.73 20.55 46.18 20.55 46.18 16.69 47.38 16.69 47.38 25.9 46.18 25.9 46.18 21.58 41.73 21.58 41.73 25.9 40.54 25.9 40.54 16.69"></polygon>
                <path d="M51.24,16.69 L51.24,20.57 C51.24,22.03 51.24,23.24 51.13,24.47 C51.6,23.47 52.13,22.52 52.84,21.42 L55.84,16.68 L57.02,16.68 L57.02,25.89 L55.9,25.89 L55.9,21.97 C55.9,20.48 55.9,19.39 56.01,18.23 C55.507524,19.299167 54.9363284,20.3346677 54.3,21.33 L51.42,25.91 L50.15,25.91 L50.15,16.7 L51.24,16.69 Z" id="Shape"></path>
                <path d="M59.79,16.8 C60.5443266,16.6832862 61.3067058,16.6264422 62.07,16.63 C62.9941907,16.5575108 63.9126906,16.8280767 64.65,17.39 C65.1927087,17.8814816 65.4893992,18.5884109 65.46,19.32 C65.506249,20.0556324 65.2497398,20.7781936 64.75,21.32 C63.984471,22.0219044 62.9667058,22.3828141 61.93,22.32 C61.6112764,22.3313009 61.2923451,22.3044435 60.98,22.24 L60.98,25.93 L59.79,25.93 L59.79,16.8 Z M60.98,21.24 C61.3076071,21.3164328 61.6437449,21.3500466 61.98,21.34 C63.42,21.34 64.29,20.64 64.29,19.34 C64.29,18.04 63.43,17.54 62.12,17.54 C61.7445425,17.5306043 61.3691394,17.5607706 61,17.63 L60.98,21.24 Z" id="Shape"></path>
                <path d="M68.86,16.69 L68.86,20.57 C68.86,22.03 68.86,23.24 68.75,24.47 C69.21,23.47 69.75,22.52 70.45,21.42 L73.45,16.68 L74.64,16.68 L74.64,25.89 L73.52,25.89 L73.52,21.97 C73.52,20.48 73.52,19.39 73.63,18.23 C73.127524,19.299167 72.5563284,20.3346677 71.92,21.33 L69.04,25.91 L67.77,25.91 L67.77,16.7 L68.86,16.69 Z" id="Shape"></path>
                <polygon id="Shape" points="78.6 16.69 78.6 20.55 83.05 20.55 83.05 16.69 84.26 16.69 84.26 25.9 83.05 25.9 83.05 21.58 78.6 21.58 78.6 25.9 77.4 25.9 77.4 16.69"></polygon>
                <polygon id="Shape" points="91.88 16.69 91.88 17.69 88.18 17.69 88.18 25.9 86.99 25.9 86.99 16.69"></polygon>
                <path d="M100.97,21.2 C100.97,24.37 99.05,26.05 96.7,26.05 C94.35,26.05 92.56,24.16 92.56,21.38 C92.56,18.6 94.38,16.54 96.84,16.54 C99.3,16.54 100.97,18.47 100.97,21.2 Z M93.83,21.35 C93.83,23.35 94.9,25.08 96.77,25.08 C98.64,25.08 99.72,23.35 99.72,21.26 C99.72,19.43 98.72,17.51 96.78,17.51 C94.84,17.51 93.83,19.33 93.83,21.35 Z" id="Shape"></path>
                <path d="M103.2,16.82 C103.91561,16.6875465 104.64226,16.6239228 105.37,16.63 C106.263176,16.5437938 107.157575,16.7815904 107.89,17.3 C108.398631,17.6795546 108.686846,18.2859286 108.66,18.92 C108.621274,19.8516999 107.994234,20.6555968 107.1,20.92 C108.200595,21.1426667 108.993871,22.1071236 109,23.23 C109.012072,23.9260724 108.728646,24.5946667 108.22,25.07 C107.302513,25.7394051 106.16982,26.045731 105.04,25.93 C104.424825,25.9373931 103.809913,25.900632 103.2,25.82 L103.2,16.82 Z M104.38,20.59 L105.46,20.59 C106.72,20.59 107.46,19.93 107.46,19.04 C107.46,17.96 106.64,17.54 105.46,17.54 C105.104889,17.5314771 104.74981,17.5582755 104.4,17.62 L104.38,20.59 Z M104.38,25 C104.711626,25.0415106 105.045887,25.0582236 105.38,25.05 C106.61,25.05 107.74,24.6 107.74,23.26 C107.74,21.92 106.67,21.49 105.37,21.49 L104.37,21.49 L104.38,25 Z" id="Shape"></path>
                <path d="M112.77,23 L111.77,25.9 L110.6,25.9 L113.73,16.69 L115.16,16.69 L118.31,25.9 L117.04,25.9 L116.04,23 L112.77,23 Z M115.77,22.07 L114.87,19.43 C114.66,18.82 114.52,18.28 114.39,17.75 C114.25,18.29 114.1,18.85 113.93,19.41 L113.02,22.07 L115.77,22.07 Z" id="Shape"></path>
                <path d="M119.49,25.9 C119.62745,25.6312332 119.747692,25.3540086 119.85,25.07 C120.108391,23.9577756 120.584184,22.9076306 121.25,21.98 C121.461705,21.7665707 121.722729,21.6085824 122.01,21.52 L122.01,21.47 C120.868816,21.3287865 120.011383,20.3598869 120.01,19.21 C119.989033,18.490956 120.298549,17.8019148 120.85,17.34 C121.625545,16.8141197 122.555295,16.5640735 123.49,16.63 C124.227802,16.6207103 124.964716,16.6843529 125.69,16.82 L125.69,25.9 L124.5,25.9 L124.5,21.9 L123.6,21.9 C123.11314,21.8565312 122.630447,22.019848 122.27,22.35 C121.697116,23.2259892 121.2872,24.1982696 121.06,25.22 C120.96,25.45 120.89,25.64 120.76,25.89 L119.49,25.9 Z M124.49,17.65 C124.121307,17.5758182 123.74608,17.5389655 123.37,17.54 C122.2,17.54 121.2,17.99 121.2,19.26 C121.2,20.37 122.2,21.01 123.48,21.01 L124.48,21.01 L124.49,17.65 Z" id="Shape"></path>
                <path d="M1.17,33.11 L1.17,37.19 L1.54,37.19 L4.7,33.11 L6.13,33.11 L2.65,37.33 C4.16,37.53 4.75,38.46 5.23,39.71 C5.51243511,40.5953946 5.84633688,41.4635392 6.23,42.31 L4.95,42.31 C4.61704459,41.6082961 4.3362834,40.8829963 4.11,40.14 C3.8885257,38.9368836 2.82283032,38.0749865 1.6,38.11 L1.21,38.11 L1.21,42.33 L0,42.33 L0,33.11 L1.17,33.11 Z" id="Shape"></path>
                <path d="M15.69,37.59 C15.69,40.75 13.76,42.43 11.41,42.43 C9.06,42.43 7.28,40.55 7.28,37.76 C7.28,34.97 9.09,32.93 11.55,32.93 C14.01,32.93 15.69,34.85 15.69,37.59 Z M8.55,37.74 C8.55,39.74 9.61,41.46 11.48,41.46 C13.35,41.46 14.48,39.73 14.48,37.64 C14.48,35.81 13.48,33.9 11.55,33.9 C9.62,33.9 8.6,35.72 8.6,37.74 L8.55,37.74 Z" id="Shape"></path>
                <path d="M17.91,33.19 C18.6634637,33.0649874 19.4262538,33.0047671 20.19,33.01 C21.1189191,32.9368768 22.0419002,33.2112766 22.78,33.78 C23.3162772,34.2710473 23.6089427,34.9734444 23.58,35.7 C23.626249,36.4356324 23.3697398,37.1581936 22.87,37.7 C22.108149,38.4013486 21.0936417,38.7623832 20.06,38.7 C19.7247449,38.7099497 19.3894093,38.6831228 19.06,38.62 L19.06,42.3 L17.87,42.3 L17.91,33.19 Z M19.1,37.63 C19.4289566,37.697044 19.7643587,37.7272302 20.1,37.72 C21.53,37.72 22.4,37.03 22.4,35.72 C22.4,34.41 21.54,33.91 20.23,33.91 C19.853996,33.897905 19.4779137,33.9314838 19.11,34.01 L19.1,37.63 Z" id="Shape"></path>
                <polygon id="Shape" points="32.51 33.11 32.51 42.31 31.32 42.31 31.32 34.11 27.05 34.11 27.05 42.31 25.86 42.31 25.86 33.11"></polygon>
                <path d="M43.13,37.59 C43.13,40.75 41.21,42.43 38.86,42.43 C36.51,42.43 34.72,40.55 34.72,37.76 C34.72,34.97 36.54,32.93 39,32.93 C41.46,32.93 43.13,34.85 43.13,37.59 Z M35.99,37.74 C35.99,39.74 37.06,41.46 38.93,41.46 C40.8,41.46 41.88,39.73 41.88,37.64 C41.88,35.81 40.88,33.9 38.94,33.9 C37,33.9 35.99,35.72 35.99,37.74 Z" id="Shape"></path>
                <path d="M45.36,33.19 C46.1133548,33.0640984 46.8762218,33.003872 47.64,33.01 C48.5656666,32.9384375 49.4849708,33.2128035 50.22,33.78 C50.7599734,34.2692029 51.0564052,34.9718561 51.03,35.7 C51.0716115,36.4349755 50.8157261,37.1557793 50.32,37.7 C49.554471,38.4019044 48.5367058,38.7628141 47.5,38.7 C47.1647369,38.7102742 46.8293656,38.6834445 46.5,38.62 L46.5,42.3 L45.31,42.3 L45.36,33.19 Z M46.55,37.63 C46.8788329,37.6978853 47.2143302,37.7280801 47.55,37.72 C48.98,37.72 49.86,37.03 49.86,35.72 C49.86,34.41 49,33.91 47.69,33.91 C47.3139792,33.897305 46.937824,33.9308903 46.57,34.01 L46.55,37.63 Z" id="Shape"></path>
                <path d="M53.65,39.39 L52.65,42.28 L51.42,42.28 L54.6,33.11 L56.03,33.11 L59.17,42.31 L57.9,42.31 L56.9,39.42 L53.65,39.39 Z M56.65,38.46 L55.75,35.81 C55.55,35.21 55.41,34.66 55.28,34.13 C55.14,34.68 54.99,35.24 54.81,35.8 L53.91,38.46 L56.65,38.46 Z" id="Shape"></path>
                <polygon id="Shape" points="62.38 33.11 62.38 41.32 66.6 41.32 66.6 33.11 67.8 33.11 67.8 41.34 68.6 41.34 68.52 44.5 67.6 44.5 67.52 42.28 61.2 42.28 61.2 33.11"></polygon>
                <path d="M71.9,33.11 L71.9,36.99 C71.9,38.45 71.9,39.65 71.79,40.88 C72.25,39.93 72.79,38.93 73.5,37.88 L76.5,33.14 L77.69,33.14 L77.69,42.34 L76.6,42.34 L76.6,38.42 C76.6,36.94 76.6,35.84 76.71,34.68 C76.2053741,35.748069 75.6342529,36.783435 75,37.78 L72.12,42.35 L70.85,42.35 L70.85,33.11 L71.9,33.11 Z" id="Shape"></path>
                <path d="M79.6,42.28 C79.7392496,42.0120865 79.8595446,41.7347399 79.96,41.45 C80.2223243,40.3391131 80.6977837,39.2897061 81.36,38.36 C81.5743433,38.1499464 81.8344968,37.992485 82.12,37.9 C80.9750292,37.758323 80.116328,36.7836971 80.12,35.63 C80.101988,34.9115475 80.4109536,34.2237311 80.96,33.76 C81.7374739,33.2383465 82.6657463,32.9886975 83.6,33.05 C84.3376143,33.0455829 85.0740648,33.1091854 85.8,33.24 L85.8,42.32 L84.6,42.32 L84.6,38.32 L83.73,38.32 C83.2431395,38.2765312 82.7604474,38.439848 82.4,38.77 C81.827245,39.6424302 81.4172911,40.611412 81.19,41.63 C81.1025843,41.8587579 81.0024275,42.0824414 80.89,42.3 L79.6,42.28 Z M84.6,34.03 C84.2307694,33.9605953 83.8556859,33.9271057 83.48,33.93 C82.31,33.93 81.31,34.38 81.31,35.65 C81.31,36.75 82.31,37.4 83.59,37.4 C83.99,37.4 84.37,37.4 84.59,37.4 L84.6,34.03 Z" id="Shape"></path>
            </g>
            <circle id="Oval" stroke="#e83d3b" cx="189" cy="16" r="5"></circle>
            <path d="M188.959961,16.4384766 L188.259766,16.4384766 L188.259766,18 L187.380859,18 L187.380859,13.734375 L188.96582,13.734375 C189.469729,13.734375 189.858397,13.8466786 190.131836,14.0712891 C190.405275,14.2958996 190.541992,14.6132792 190.541992,15.0234375 C190.541992,15.3144546 190.479005,15.5571279 190.353027,15.7514648 C190.22705,15.9458018 190.036134,16.1005854 189.780273,16.2158203 L190.703125,17.9589844 L190.703125,18 L189.759766,18 L188.959961,16.4384766 Z M188.259766,15.7265625 L188.96875,15.7265625 C189.189454,15.7265625 189.360351,15.6704107 189.481445,15.5581055 C189.60254,15.4458002 189.663086,15.2910166 189.663086,15.09375 C189.663086,14.8925771 189.605958,14.7343756 189.491699,14.6191406 C189.377441,14.5039057 189.20215,14.4462891 188.96582,14.4462891 L188.259766,14.4462891 L188.259766,15.7265625 Z" id="R" fill="#e83d3b"></path>
        </g>
    </g>
</svg>