<?xml version="1.0" encoding="UTF-8"?> <svg xmlns="http://www.w3.org/2000/svg" width="1055" height="662" viewBox="0 0 1055 662" fill="none"><path opacity="0.18" d="M1054.74 468.757C1053.7 489.207 1048.47 509.227 1039.38 527.577C1024.55 557.027 1001.47 581.097 974.159 599.697C958.919 610.007 942.639 618.687 925.599 625.597C916.209 629.437 906.639 632.787 896.909 635.637C838.009 652.877 775.849 653.716 714.529 654.436L283.009 659.457L226.249 660.106C208.189 660.326 189.789 660.457 171.579 659.457C136.839 657.587 102.739 651.657 72.8391 634.587C57.4391 625.747 43.9791 613.877 33.2891 599.697C13.0191 572.947 2.05906 538.837 1.53906 504.837V501.266C1.74906 468.086 11.9991 435.377 33.2891 409.827C34.6491 408.217 36.029 406.616 37.479 405.066C40.489 401.806 43.779 398.657 47.239 395.507C69.249 375.647 98.319 357.856 111.499 332.266C134.679 287.246 105.769 268.867 101.969 224.707C95.569 150.437 170.759 65.0965 231.849 31.0165C297.529 -5.70353 380.249 -10.1132 449.479 19.3568C522.729 50.5468 591.089 118.477 668.359 99.3168C693.199 93.1668 716.019 77.9965 741.619 77.5565C788.919 76.6465 821.759 124.757 836.479 169.747C851.209 214.747 859.199 265.527 894.209 297.377C919.339 320.217 953.969 328.807 984.399 343.987C993.639 348.467 1002.39 353.896 1010.51 360.186C1028.44 374.346 1040.76 393.567 1047.85 414.927C1053.49 432.277 1055.82 450.537 1054.74 468.757Z" fill="#3BB403"></path><path opacity="0.18" d="M974.429 600.117C950.699 616.027 924.639 628.157 897.179 636.047C842.119 652.167 784.219 653.977 726.869 654.697L714.839 654.847L556.409 656.707L475.939 657.657L296.819 659.737L283.239 659.896L226.469 660.557C208.409 660.777 190.019 660.896 171.799 659.896C137.019 658.076 102.919 652.147 72.989 635.127C57.649 626.247 44.2589 614.357 33.6289 600.167L974.429 600.117Z" fill="#3BB403"></path><path opacity="0.05" d="M799.81 628.876C800.18 634.216 796.39 639.376 797.46 644.616C799.05 652.296 807.82 651.016 815.69 650.446C834.79 648.876 859.23 645.956 877.83 641.156C895.06 636.706 907.59 632.396 924.01 627.076C925.29 626.646 924.89 623.016 924.96 621.666C925.06 619.886 922.7 619.225 920.92 619.105C904.69 618.585 888.27 619.106 872.34 615.906C865.18 614.446 858.16 612.216 850.9 611.386C841.94 610.376 832.97 611.476 824.01 610.796C817.52 610.296 801.7 603.196 795.67 606.116C786.63 610.576 799.36 622.426 799.81 628.876Z" fill="#000405"></path><path opacity="0.05" d="M423.59 633.696C442.35 638.956 457.52 650.095 474.04 658.725C414.33 659.405 354.63 660.096 294.93 660.796C299.94 656.026 305.53 651.906 311.58 648.536C331.21 637.546 354.27 635.015 376.63 632.685C392.25 631.045 408.4 629.446 423.59 633.696Z" fill="#000405"></path><path opacity="0.05" d="M728.1 649.467C727.82 651.177 727.09 652.786 725.97 654.106C725.57 654.616 725.24 655.176 724.97 655.766L712.95 655.927L554.49 657.737C557.36 655.507 559.97 652.957 562.25 650.127C565.55 646.027 568.19 641.376 572.03 637.816C583.38 627.296 601.34 629.246 616.05 633.976C620.51 635.436 625.01 637.097 629.72 637.037C638.07 636.937 645.24 631.506 652.77 627.766C676.42 615.956 707.73 622.287 724.95 642.347C726.64 644.427 728.31 646.837 728.1 649.467Z" fill="#000405"></path><path d="M643.58 469.948L614.29 614.018L594.61 611.758L592.34 611.488C592.34 611.488 597.98 568.798 600.41 507.908C602.01 467.578 608.91 434.648 612.22 407.268C613.24 399.728 614.96 392.288 617.34 385.058C621.33 372.948 627.42 361.617 635.15 362.777C652.23 365.347 674.73 380.108 677.7 389.348C682.88 405.488 643.58 469.948 643.58 469.948Z" fill="#25233A"></path><path opacity="0.24" d="M623.101 385.436C623.101 385.436 609.971 487.116 609.551 518.836C609.131 550.556 596.081 611.486 596.081 611.486L594.571 611.756L592.301 611.486C592.301 611.486 597.941 568.796 600.371 507.916C601.971 467.576 608.871 434.646 612.181 407.266C613.201 399.726 614.921 392.285 617.301 385.065C619.241 384.955 621.191 385.086 623.101 385.436Z" fill="white"></path><path d="M710.72 613.786H688.95V613.656C688.36 610.726 677.42 556.556 661.97 517.326C650.44 488.066 644.87 428.466 642.76 397.966C641.91 386.446 641.58 379.065 641.58 379.065C641.58 379.065 685.79 366.016 691.52 371.806C697.26 377.596 703.78 403.815 703.78 403.815C703.78 403.815 688.64 507.666 698.27 514.706C707.9 521.756 710.72 613.786 710.72 613.786Z" fill="#3F3D56"></path><path d="M366.24 198.727C366.24 198.727 334.05 208.646 321.01 301.556C316.3 335.056 346.27 394.226 346.27 394.226L366.24 198.727Z" fill="#3BB403"></path><path d="M366.24 198.727C366.24 198.727 334.05 208.646 321.01 301.556C316.3 335.056 346.27 394.226 346.27 394.226L366.24 198.727Z" fill="url(#paint0_linear)"></path><path d="M342.731 382.628C340.761 382.308 338.741 382.458 336.831 383.078C334.931 383.688 333.201 384.748 331.791 386.168C330.381 387.588 329.321 389.318 328.711 391.228C328.101 393.128 327.961 395.148 328.291 397.128C330.751 411.648 335.431 431.798 343.651 443.228C357.541 462.338 376.491 488.718 376.491 488.718L396.081 623.168L420.251 619.908L420.031 491.058L392.751 390.888L342.731 382.628Z" fill="#25233A"></path><path d="M392.689 390.888L389.55 502.808L337.75 623.258L320.399 615.918L315.35 613.758L344.04 500.817C344.04 500.817 332.869 470.088 324.649 447.678C316.759 426.178 327.489 383.577 328.389 380.147V379.918L392.689 390.888Z" fill="#3F3D56"></path><path d="M607.179 319.306L543.27 350.987L531.34 335.786L528.27 331.866L582.879 302.197C582.879 302.197 601.639 260.496 605.709 241.326C606.489 237.766 607.27 234.927 608 232.477C609.42 228.037 622.99 212.336 627.54 211.406C632.1 210.466 626.97 224.477 630 228.047C633.34 232.947 635.04 238.777 634.87 244.697C635.39 256.607 607.179 319.306 607.179 319.306Z" fill="#444444"></path><path d="M691.51 356.408C691.51 356.408 659.76 394.547 623.17 385.467C620.65 384.837 618.18 384.008 615.79 382.988C612.68 381.648 610.23 379.128 608.97 375.988C607.71 372.838 607.75 369.327 609.08 366.217V366.137C612.61 358.117 612.72 346.537 612.4 335.837C611.65 311.237 605.43 284.617 604.97 273.547C604.66 266.467 605.8 256.437 607.89 246.427C611.56 228.627 618.13 210.887 624.93 209.867C644.96 206.777 651.82 212.237 651.82 212.237L686.02 232.097C703.03 249.847 694.76 277.708 691.51 356.408Z" fill="#444444"></path><path d="M641.321 255.937L650.071 270.027L625.851 294.517L620.871 299.567L647.191 210.377L647.291 201.457L650.631 204.877V204.887L655.011 209.367L656.691 246.297L641.321 255.937Z" fill="#444444"></path><path d="M688.26 276.977L684.54 373.126C684.54 373.126 632.3 397.956 625.39 370.056C620.05 348.486 633.72 323.896 633.72 323.896L688.26 276.977Z" fill="url(#paint1_linear)"></path><path d="M636.8 330.297L621.09 393.566L718.18 413.487L732.14 351.587L636.8 330.297Z" fill="white"></path><path d="M647.97 187.336C647.97 187.626 647.62 201.956 647.13 211.066C646.77 218.126 643.46 223.096 638.42 228.006C635.49 231.066 631.96 233.506 628.06 235.156C626.69 235.656 625.19 235.596 623.87 234.986C622.55 234.386 621.52 233.276 621.01 231.916C620.63 230.846 620.58 229.686 620.87 228.586C621.37 226.686 621.87 224.486 622.26 222.186C623.08 217.436 623.43 212.286 622.14 208.646C622.11 208.516 622.06 208.386 622.01 208.256C621.24 206.366 622.01 204.316 623.75 202.256C626.2 199.356 630.48 196.406 634.74 193.926C639.02 191.476 643.44 189.286 647.97 187.336Z" fill="url(#paint2_linear)"></path><path d="M625.05 221.207C624.17 221.647 623.24 221.977 622.28 222.187C623.1 217.437 623.46 212.287 622.17 208.647L623.78 202.247L625 197.487L634.77 193.907L644.67 190.297C642.28 207.917 632.86 217.507 625.05 221.207Z" fill="url(#paint3_linear)"></path><path d="M622.361 137.278C618.661 137.508 615.05 138.458 611.73 140.078C608.4 141.698 605.43 143.958 602.98 146.738C600.53 149.508 598.65 152.738 597.44 156.228C596.24 159.728 595.74 163.428 595.97 167.128C595.99 167.848 596.06 168.578 596.18 169.288C597.08 180.738 600.04 191.928 604.92 202.328C614.12 217.948 637.25 205.018 640.9 198.558C644.55 192.108 658.321 162.908 652.501 154.628C648.661 148.868 637.371 136.588 622.361 137.278Z" fill="url(#paint4_linear)"></path><path d="M597.87 126.266L602.639 128.697C599.799 128.637 596.989 129.257 594.429 130.497C591.879 131.737 589.659 133.577 587.949 135.837C583.599 140.207 581.14 146.106 581.1 152.266L589.179 148.427C589.179 148.427 588.579 158.407 603.889 159.137C619.209 159.867 635.419 160.417 635.419 160.417L630.219 153.227C630.219 153.227 639.749 157.066 641.409 160.536C642.939 166.176 644.039 171.927 644.689 177.727C644.689 177.727 648.47 167.877 650.04 170.047C651.62 172.207 648.399 181.116 646.419 183.076C644.429 185.036 644.77 190.907 644.59 191.387C644.41 191.877 654.08 183.816 654.5 181.056C654.92 178.286 664.499 150.327 658.209 144.487L662.06 144.187C659.8 142.667 657.23 141.677 654.54 141.297C654.54 141.297 629.31 108.416 597.87 126.266Z" fill="#3F3D56"></path><path d="M498.32 344.987C502.51 341.327 507.09 338.148 511.99 335.498C515.82 334.138 519.82 333.317 523.88 333.037C523.88 333.037 524.55 338.637 521.32 339.007C518.09 339.377 515.41 344.277 515.41 344.277C515.41 344.277 536.11 352.758 538.97 351.958C541.82 351.168 541.26 355.287 536.02 355.027C530.78 354.757 529.5 362.077 525.88 361.977C522.26 361.877 516.52 364.117 511.19 364.307C505.81 363.857 500.52 362.627 495.49 360.647L498.32 344.987Z" fill="url(#paint5_linear)"></path><path d="M418.18 285.556L400.82 383.156C400.82 383.156 394.83 401.836 363.81 399.046C352.47 398.106 341.8 393.296 333.58 385.436L333.08 384.956L332.73 384.596C326.79 378.726 322.14 371.676 319.07 363.906C319.07 363.906 338.99 226.216 359.92 202.326C362 199.946 364.09 198.676 366.19 198.786C371.92 199.546 377.4 201.636 382.17 204.886C395.6 213.146 406.22 225.266 412.65 239.656C419.07 254.046 421 270.046 418.18 285.556Z" fill="#3BB403"></path><path d="M385.54 282.287L363.77 399.038C363.77 399.038 397.13 403.618 400.78 383.158L411.03 323.777L385.54 282.287Z" fill="url(#paint6_linear)"></path><path d="M366.24 198.727C366.24 198.727 369.56 173.616 370.89 157.286C372.22 140.966 377.55 119.097 404.96 121.897C432.36 124.697 432.45 166.126 424.88 183.466C417.31 200.796 407.22 200.296 407.22 200.296C407.22 200.296 393.57 197.327 394.08 213.747L366.24 198.727Z" fill="url(#paint7_linear)"></path><path d="M376.36 118.426C372.37 122.256 369.49 127.096 368.02 132.436C366.79 136.756 365.96 141.186 365.54 145.656L368.33 142.596C368.19 150.266 367.62 157.906 366.63 165.506C365.59 172.586 365.16 179.736 365.35 186.896L370.47 186.636L376.87 194.497L383.94 189.707L389.29 186.957L394.03 175.256C392.85 174.406 391.99 173.196 391.57 171.806C391.16 170.416 391.21 168.926 391.73 167.566C393.47 162.796 397.8 161.696 398.81 164.506C399.58 168.016 400.01 171.596 400.09 175.186L407.64 153.796C407.64 153.796 412.38 147.146 416.53 151.716C419.02 154.486 422.16 156.586 425.67 157.816L423.11 150.747L429.96 152.497L429.43 144.326L434.55 147.906C434.55 147.906 436.79 134.676 432.45 128.806C428.11 122.946 410.85 99.4462 376.36 118.426Z" fill="#3F3D56"></path><path d="M498.899 342.337L495.429 360.667L494.489 365.597L431.989 360.937C414.689 359.457 397.709 347.617 395.559 330.317L373.929 253.967C372.949 250.837 372.789 247.507 373.449 244.297C374.109 241.087 375.569 238.097 377.699 235.597C379.839 233.107 382.559 231.197 385.629 230.047C388.709 228.897 392.019 228.547 395.259 229.027C399.379 229.637 403.239 231.397 406.409 234.097C409.579 236.797 411.929 240.327 413.189 244.297L426.799 312.637C427.589 316.657 429.529 320.377 432.369 323.327C435.219 326.277 438.859 328.347 442.849 329.287L498.899 342.337Z" fill="#3BB403"></path><path d="M531.331 335.777L522.631 338.487C522.631 338.487 511.741 339.467 508.121 342.567C504.491 345.657 506.521 347.057 506.521 347.057C506.521 347.057 518.041 345.367 520.531 346.327C523.011 347.287 535.161 352.117 539.011 352.047C542.851 351.987 543.271 350.987 543.271 350.987L531.331 335.777Z" fill="url(#paint8_linear)"></path><path d="M505.07 358.548C505.71 357.978 506.48 357.558 507.31 357.338C508.14 357.118 509.01 357.088 509.85 357.268C510.04 357.298 510.21 357.388 510.35 357.518C510.43 357.678 510.47 357.847 510.47 358.027C510.47 358.197 510.43 358.377 510.35 358.527C509.77 360.487 508.85 362.318 507.63 363.948C508.99 363.488 509.62 361.978 510.47 360.838C511.12 359.978 511.95 359.278 512.91 358.788C513.86 358.298 514.91 358.028 515.98 357.998C516.24 357.968 516.5 358.017 516.72 358.147C517.25 358.507 517.02 359.327 516.72 359.897C516.19 360.977 515.66 362.068 515.12 363.158C516.48 361.198 518.05 359.387 519.81 357.777C520.23 357.327 520.76 356.997 521.35 356.817C521.64 356.727 521.96 356.748 522.24 356.868C522.52 356.988 522.75 357.218 522.88 357.498C523 357.838 523 358.208 522.88 358.548C522.51 360.028 521.86 361.418 520.96 362.658C522.04 360.868 523.4 359.268 524.98 357.908C525.1 357.768 525.24 357.667 525.4 357.607C525.56 357.537 525.73 357.518 525.91 357.538C526.1 357.598 526.26 357.738 526.35 357.918C526.89 358.818 526.35 359.958 525.79 360.848C524.75 362.498 523.43 364.268 521.5 364.558C521.07 364.588 520.64 364.668 520.22 364.798C519.92 364.948 519.64 365.128 519.39 365.348C518.72 365.798 517.94 366.058 517.13 366.078C516.32 366.088 515.53 365.878 514.84 365.448C513.91 366.038 512.82 366.348 511.71 366.328C510.61 366.308 509.53 365.968 508.62 365.348C508.41 365.158 508.15 365.047 507.87 365.027C507.59 365.007 507.32 365.078 507.08 365.228C506.25 365.508 505.35 365.527 504.5 365.277C503.66 365.027 502.91 364.528 502.37 363.838C501.22 362.198 503.8 359.648 505.07 358.548Z" fill="url(#paint9_linear)"></path><path d="M660.774 355.795C661.382 353.174 662.618 351.273 664.481 350.092C666.321 348.905 668.621 348.632 671.381 349.273L673.887 349.855L671.044 362.102C672.516 362.395 673.764 362.232 674.787 361.614C675.816 360.973 676.5 359.921 676.839 358.46C677.125 357.231 677.267 356.09 677.267 355.039C677.243 353.983 677.1 352.862 676.837 351.676L680.838 352.605C681.087 353.64 681.195 354.704 681.161 355.796C681.156 356.871 680.984 358.139 680.645 359.6C680.203 361.502 679.465 363.103 678.43 364.403C677.372 365.697 676.027 366.595 674.395 367.096C672.763 367.598 670.857 367.595 668.676 367.089C666.45 366.572 664.692 365.773 663.403 364.692C662.096 363.582 661.227 362.268 660.797 360.75C660.367 359.233 660.36 357.581 660.774 355.795ZM664.47 356.616C664.239 357.613 664.37 358.524 664.863 359.347C665.362 360.147 666.282 360.764 667.624 361.198L669.311 353.926C668.146 353.68 667.125 353.761 666.248 354.169C665.348 354.571 664.756 355.387 664.47 356.616Z" fill="#3BB403"></path><path fill-rule="evenodd" clip-rule="evenodd" d="M664.045 382.727C656.671 381.016 650.811 376.162 647.281 369.815L653.524 366.343C656.176 371.111 660.449 374.559 665.66 375.769C670.872 376.978 676.226 375.765 680.708 372.652L684.783 378.519C678.818 382.662 671.42 384.439 664.045 382.727Z" fill="#3BB403"></path><path fill-rule="evenodd" clip-rule="evenodd" d="M660.596 397.587C649.026 394.901 639.79 387.28 634.199 377.229L640.441 373.756C645.155 382.23 652.804 388.445 662.211 390.628C671.618 392.811 681.223 390.601 689.187 385.07L693.262 390.937C683.815 397.499 672.166 400.272 660.596 397.587Z" fill="#3BB403"></path><path d="M692.71 390.416L671.33 383.025L670.6 382.766L686.18 332.676C686.18 332.676 665.69 276.336 662.29 259.086C661.19 253.356 661.13 247.466 662.13 241.706C662.63 238.726 664.03 235.956 666.13 233.776C668.23 231.586 670.95 230.096 673.91 229.486C677.23 228.746 680.7 229.206 683.72 230.766C686.39 232.146 688.96 233.706 691.41 235.446C693.37 236.876 694.76 238.956 695.34 241.316C699.18 257.086 714.64 321.446 715.21 327.556C715.84 334.556 692.71 390.416 692.71 390.416Z" fill="#444444"></path><path d="M665.01 387.277C663.96 388.277 662.97 390.067 664.08 391.017C664.35 391.247 664.72 391.378 664.94 391.658C665.48 392.338 664.81 393.287 664.19 393.887L659.07 398.868C657.18 400.698 655.12 402.987 655.55 405.587C655.76 406.517 656.22 407.367 656.87 408.047C657.53 408.737 658.35 409.237 659.26 409.497C661.1 409.967 663.03 409.947 664.86 409.427C664.83 409.967 664.96 410.507 665.23 410.967C665.5 411.437 665.9 411.817 666.38 412.057C667.37 412.507 668.43 412.778 669.51 412.828C672.63 413.378 675.83 413.287 678.92 412.567C679.15 412.917 679.38 413.248 679.63 413.578C683.67 412.858 685.87 408.537 687.31 404.687C688.74 400.847 690.2 396.577 691.43 392.437C691.66 391.877 691.7 391.267 691.55 390.687C691.36 390.337 691.1 390.047 690.78 389.807C690.47 389.567 690.11 389.407 689.73 389.317C684.84 387.457 679.96 385.557 675.05 383.727C670.52 382.037 668.46 384.067 665.01 387.277Z" fill="url(#paint10_linear)"></path><path d="M641.321 255.937L650.071 270.027L625.851 294.517L620.871 299.567L647.191 210.377L647.291 201.457L650.631 204.877V204.887L655.011 209.367L656.691 246.297L641.321 255.937Z" fill="#3BB403"></path><path d="M622.28 222.187L619.02 237.547L620.87 299.547L644.729 218.717L634.49 225.197C633.94 225.537 633.37 225.857 632.78 226.157C631.89 226.597 630.919 226.867 629.929 226.937C628.939 227.017 627.94 226.887 626.99 226.577C626.05 226.267 625.169 225.767 624.419 225.117C623.669 224.467 623.05 223.677 622.6 222.787C622.5 222.577 622.41 222.377 622.32 222.157L622.28 222.187Z" fill="white"></path><path d="M622.441 209.797L611.791 229.737L615.331 238.067L609.551 250.547L620.831 299.547C620.831 299.547 617.751 239.647 622.241 222.157C622.281 222.187 623.771 213.847 622.441 209.797Z" fill="#3BB403"></path><path d="M641.321 255.937L650.071 270.027L625.851 294.517L620.871 299.567L647.191 210.377L647.291 201.457L650.631 204.877V204.887L655.011 209.367L656.691 246.297L641.321 255.937Z" fill="url(#paint11_linear)"></path><path d="M622.441 209.797L611.791 229.737L615.331 238.067L609.551 250.547L620.831 299.547C620.831 299.547 617.751 239.647 622.241 222.157C622.281 222.187 623.771 213.847 622.441 209.797Z" fill="url(#paint12_linear)"></path><path d="M365.37 194.527L396.81 210.157L405.31 226.637L359.939 202.237L365.37 194.527Z" fill="#3BB403"></path><path d="M365.37 194.527L396.81 210.157L405.31 226.637L359.939 202.237L365.37 194.527Z" fill="url(#paint13_linear)"></path><path d="M281.34 411.307V661.007H253.85V547.737H5.8501C2.1801 534.237 0.21 520.327 0 506.337V502.807C0.22 469.637 10.45 436.827 31.77 411.367L281.34 411.307Z" fill="#3BB403"></path><path d="M310.679 396.957V411.276H31.7695C33.1195 409.656 34.5095 408.057 35.9495 406.507C38.9695 403.257 42.2495 400.107 45.7195 396.957H310.679Z" fill="#3BB403"></path><path d="M158.981 314.568C155.831 311.548 152.071 309.248 148.741 306.478C147.561 305.508 146.321 304.198 146.551 302.638C146.701 302.038 147.021 301.488 147.471 301.058C147.931 300.638 148.501 300.348 149.111 300.248C150.361 300.078 151.621 300.158 152.841 300.478L145.671 292.408C145.001 291.648 144.281 290.618 144.771 289.728C145.261 288.848 146.631 288.898 147.571 289.348C148.431 289.938 149.431 290.298 150.471 290.388C147.911 286.788 144.651 283.858 141.931 280.438C139.201 277.018 137.011 272.748 137.421 268.448C137.431 267.828 137.651 267.218 138.051 266.738C138.871 265.918 140.251 266.258 141.311 266.738C148.901 270.038 154.981 276.038 158.381 283.588C157.201 279.918 156.721 276.048 156.971 272.198C156.951 271.758 157.021 271.308 157.191 270.888C157.361 270.468 157.621 270.098 157.951 269.798C159.231 268.908 160.921 270.438 161.661 271.858C166.711 281.678 163.181 293.628 165.251 304.498C165.511 301.468 166.921 298.668 169.191 296.648C169.821 302.238 169.601 307.898 168.551 313.438C170.121 314.128 170.001 316.378 169.601 318.068C169.091 320.628 168.451 323.188 167.681 325.748C164.861 325.518 164.811 323.988 163.931 321.718C162.811 319.008 161.131 316.568 158.981 314.568Z" fill="#3BB403"></path><path d="M181.559 281.098C184.209 278.088 187.389 275.238 191.319 274.418C192.509 276.708 191.319 279.538 189.669 281.548C188.009 283.558 185.959 285.388 185.129 287.768C188.559 283.678 193.199 280.778 198.389 279.488C200.229 278.858 202.239 278.978 203.999 279.808C204.249 279.938 204.469 280.118 204.649 280.338C204.829 280.558 204.959 280.818 205.049 281.088C205.349 282.498 203.559 283.338 202.149 283.648C192.269 286.248 183.589 292.198 177.599 300.488C183.449 296.948 190.289 295.458 197.079 296.218C198.259 296.368 199.639 296.718 200.079 297.808C200.759 299.428 198.919 300.958 197.259 301.508C190.859 303.638 182.839 301.368 177.669 305.748C180.469 305.438 183.279 306.218 185.529 307.928C187.339 309.298 188.669 312.098 187.079 313.718C186.539 314.128 185.919 314.428 185.249 314.578C184.589 314.728 183.899 314.728 183.239 314.588C179.539 314.268 174.979 313.648 172.849 316.698C171.689 318.378 171.779 320.538 171.339 322.588C170.989 324.218 169.649 327.098 167.879 325.508C166.709 324.448 167.169 320.728 167.169 319.318C167.249 305.288 172.349 291.748 181.529 281.138L181.559 281.098Z" fill="#3BB403"></path><path d="M158.981 314.568C155.831 311.548 152.071 309.248 148.741 306.478C147.561 305.508 146.321 304.198 146.551 302.638C146.701 302.038 147.021 301.488 147.471 301.058C147.931 300.638 148.501 300.348 149.111 300.248C150.361 300.078 151.621 300.158 152.841 300.478L145.671 292.408C145.001 291.648 144.281 290.618 144.771 289.728C145.261 288.848 146.631 288.898 147.571 289.348C148.431 289.938 149.431 290.298 150.471 290.388C147.911 286.788 144.651 283.858 141.931 280.438C139.201 277.018 137.011 272.748 137.421 268.448C137.431 267.828 137.651 267.218 138.051 266.738C138.871 265.918 140.251 266.258 141.311 266.738C148.901 270.038 154.981 276.038 158.381 283.588C157.201 279.918 156.721 276.048 156.971 272.198C156.951 271.758 157.021 271.308 157.191 270.888C157.361 270.468 157.621 270.098 157.951 269.798C159.231 268.908 160.921 270.438 161.661 271.858C166.711 281.678 163.181 293.628 165.251 304.498C165.511 301.468 166.921 298.668 169.191 296.648C169.821 302.238 169.601 307.898 168.551 313.438C170.121 314.128 170.001 316.378 169.601 318.068C169.091 320.628 168.451 323.188 167.681 325.748C164.861 325.518 164.811 323.988 163.931 321.718C162.811 319.008 161.131 316.568 158.981 314.568Z" fill="url(#paint14_linear)"></path><path d="M181.559 281.098C184.209 278.088 187.389 275.238 191.319 274.418C192.509 276.708 191.319 279.538 189.669 281.548C188.009 283.558 185.959 285.388 185.129 287.768C188.559 283.678 193.199 280.778 198.389 279.488C200.229 278.858 202.239 278.978 203.999 279.808C204.249 279.938 204.469 280.118 204.649 280.338C204.829 280.558 204.959 280.818 205.049 281.088C205.349 282.498 203.559 283.338 202.149 283.648C192.269 286.248 183.589 292.198 177.599 300.488C183.449 296.948 190.289 295.458 197.079 296.218C198.259 296.368 199.639 296.718 200.079 297.808C200.759 299.428 198.919 300.958 197.259 301.508C190.859 303.638 182.839 301.368 177.669 305.748C180.469 305.438 183.279 306.218 185.529 307.928C187.339 309.298 188.669 312.098 187.079 313.718C186.539 314.128 185.919 314.428 185.249 314.578C184.589 314.728 183.899 314.728 183.239 314.588C179.539 314.268 174.979 313.648 172.849 316.698C171.689 318.378 171.779 320.538 171.339 322.588C170.989 324.218 169.649 327.098 167.879 325.508C166.709 324.448 167.169 320.728 167.169 319.318C167.249 305.288 172.349 291.748 181.529 281.138L181.559 281.098Z" fill="url(#paint15_linear)"></path><path d="M184.249 396.855L169.599 396.926H155.099C123.219 378.026 160.069 339.586 160.069 339.586C160.069 339.586 161.529 333.596 159.619 329.816C159.179 328.906 158.499 328.146 157.639 327.606C152.939 324.786 159.499 323.676 159.499 323.676H179.169C179.169 323.676 185.899 324.236 180.839 327.786C175.779 331.336 178.599 339.586 178.599 339.586C217.949 383.346 184.249 396.855 184.249 396.855Z" fill="white"></path><path opacity="0.51" d="M170.659 395.776C170.339 396.186 169.979 396.577 169.599 396.927H155.099C123.219 378.027 160.069 339.587 160.069 339.587C160.069 339.587 161.529 333.597 159.619 329.817C166.029 329.337 169.109 337.597 168.249 342.847C167.599 346.887 166.969 350.947 166.269 354.997C165.449 358.777 165.229 362.667 165.629 366.517C166.419 371.647 169.339 376.167 171.249 380.977C173.159 385.787 173.849 391.676 170.659 395.776Z" fill="url(#paint16_linear)"></path><path d="M281.34 411.307L138.07 452.017C113.22 459.077 90.12 471.237 70.23 487.707C50.33 504.187 34.09 524.637 22.54 547.737H5.88989C2.20989 534.237 0.23 520.327 0 506.337V502.807C0.22 469.637 10.45 436.827 31.77 411.367L281.34 411.307Z" fill="url(#paint17_linear)"></path><path opacity="0.61" d="M266.99 547.738H253.85V660.808H266.99V547.738Z" fill="url(#paint18_linear)"></path><path d="M1053.19 470.237C1052.15 490.697 1046.92 510.716 1037.83 529.066C1034.46 535.746 1030.65 542.207 1026.43 548.387C1012.24 569.237 993.69 586.807 972.65 601.197C957.41 611.497 941.13 620.167 924.09 627.087L890.14 620.827L825.07 608.827C821.88 608.237 818.8 607.867 815.88 607.547C803.88 606.187 794.54 605.527 791.02 593.347C786.66 578.347 791.02 555.407 791.02 539.677C791.02 512.357 793.88 479.816 817.67 466.396C837.42 455.286 862.49 463.137 884.53 457.987C886.65 457.637 888.65 456.757 890.34 455.427C892.91 453.057 893.3 449.216 893.37 445.726C893.92 419.286 885.08 389.637 900.88 368.427C912.97 352.217 935.09 347.747 955.22 345.877C961.41 345.287 967.64 345.017 973.86 345.077C976.89 345.077 979.9 345.197 982.92 345.457C1003.78 347.067 1023.65 353.766 1034.25 370.936C1039.93 380.106 1041.94 390.986 1043.83 401.606C1044.69 406.506 1045.55 411.456 1046.39 416.396C1049.21 434.096 1051.77 452.207 1053.19 470.237Z" fill="#3F3D56"></path><path d="M1053.19 470.237C1052.15 490.697 1046.92 510.716 1037.83 529.066C1034.46 535.746 1030.65 542.207 1026.43 548.387C1018.63 551.707 1009.25 551.667 1000.55 551.797C986.859 551.997 973.21 553.177 959.689 555.307C953.619 556.247 947.289 557.517 942.529 561.407C936.239 566.537 934.06 575.277 933.72 583.407C933.37 591.537 934.46 599.777 933.08 607.807C932.75 610.507 931.719 613.087 930.089 615.267C926.829 619.197 921.129 619.907 916.009 620.227C907.349 620.747 898.69 620.957 890.02 620.867C868.23 620.587 846.51 618.307 825.14 614.047C821.44 613.307 817.119 611.987 815.939 608.387C815.859 608.127 815.799 607.847 815.759 607.577C815.569 605.877 815.73 604.167 816.22 602.537L827.939 552.387C829.529 545.567 831.17 538.626 834.79 532.646C842.01 520.676 855.739 514.557 868.609 509.137L903.259 494.526C912.739 490.556 919.179 490.046 918.339 478.896C916.479 454.236 911.31 430.237 911.31 405.347C911.31 398.197 911.64 390.807 914.71 384.387C917.79 377.957 923.31 373.067 928.98 368.757C942.59 358.617 957.69 350.617 973.73 345.057C976.76 345.057 979.77 345.187 982.79 345.447C1003.65 347.057 1023.52 353.757 1034.13 370.927C1039.8 380.097 1041.81 390.977 1043.71 401.597C1044.56 406.497 1045.42 411.437 1046.27 416.387C1048.12 427.617 1049.83 438.957 1051.2 450.327C1051.99 456.937 1052.63 463.547 1053.19 470.237Z" fill="#25233A"></path><path d="M1053.19 470.237C1052.15 490.697 1046.92 510.716 1037.83 529.066C1034.46 535.746 1030.65 542.207 1026.43 548.387C1018.63 551.707 1009.25 551.667 1000.55 551.797C986.859 551.997 973.209 553.177 959.689 555.307C953.619 556.247 947.289 557.517 942.529 561.407C942.529 561.407 950.479 517.467 982.919 502.657C1015.35 487.857 1051.2 450.307 1051.2 450.307C1051.99 456.937 1052.63 463.547 1053.19 470.237Z" fill="#3F3D56"></path><path d="M341.311 379.428C341.131 379.278 340.971 379.108 340.801 378.938L340.911 379.048C341.061 379.158 341.191 379.288 341.311 379.428Z" fill="url(#paint19_linear)"></path><path opacity="0.24" d="M327.12 359.058C327.12 359.058 328.98 379.657 333.74 384.897C327.67 378.887 322.91 371.678 319.77 363.728C319.77 363.728 338.579 226.718 359.919 202.258L366.32 205.658L327.12 359.058Z" fill="white"></path><path opacity="0.24" d="M605.03 247.986L605.33 262.066L586.939 308.356L530.75 337.816L527.6 333.776L583.439 303.486C583.439 303.486 600.87 267.626 605.03 247.986Z" fill="white"></path><path opacity="0.24" d="M497 359.118L496.05 364.008L432.18 359.388C414.49 357.908 397.14 346.168 394.94 329.018L372.899 253.258C371.899 250.148 371.729 246.838 372.399 243.648C373.069 240.458 374.56 237.488 376.74 235.008C376.74 235.008 397.319 328.788 404.889 337.178C412.449 345.578 426.86 350.608 426.86 350.608L497 359.118Z" fill="white"></path><path opacity="0.24" d="M354.23 510.487L319.851 619.066L314.73 616.867L344.061 501.367C344.061 501.367 332.64 469.947 324.24 447.007C316.17 425.027 327.151 381.467 328.081 377.957L332.48 382.497C332.48 382.497 320.951 434.057 335.781 458.557C350.611 483.067 354.23 510.487 354.23 510.487Z" fill="white"></path><path opacity="0.24" d="M623.959 385.436C621.379 384.776 618.859 383.926 616.419 382.876C614.839 382.196 613.409 381.217 612.209 379.987C611.009 378.757 610.069 377.306 609.429 375.716C608.789 374.126 608.469 372.417 608.489 370.707C608.519 368.987 608.879 367.286 609.549 365.716V365.526C613.179 357.326 613.279 345.466 612.949 334.536C612.189 309.386 605.83 282.196 605.35 270.826C605.05 263.596 606.21 253.336 608.34 243.096L612.36 226.076C612.36 226.076 608.669 253.686 607.719 261.256C606.769 268.816 615.4 311.906 618.62 318.156C621.83 324.406 616.199 361.176 616.949 369.917C617.709 378.646 623.959 385.436 623.959 385.436Z" fill="white"></path><path opacity="0.24" d="M695.27 614.038L690.04 616.598C689.43 613.588 678.23 558.208 662.44 518.078C650.65 488.158 644.96 427.167 642.75 396.027L649.24 397.308C649.24 397.308 658.87 476.818 669.45 506.218C680.02 535.618 695.27 614.038 695.27 614.038Z" fill="white"></path><path opacity="0.24" d="M692.1 329.938L675.12 384.627L671.28 383.897L670.52 383.637L686.46 332.417C686.46 332.417 665.59 274.877 662.06 257.157C660.93 251.287 660.879 245.267 661.889 239.377C662.399 236.327 663.83 233.497 665.98 231.257C668.13 229.027 670.9 227.497 673.94 226.867C673.94 226.867 662.409 234.897 665.919 252.647C670.509 275.457 692.1 329.938 692.1 329.938Z" fill="white"></path><path opacity="0.24" d="M653.281 212.757L626.741 296.967L621.641 302.127L648.561 210.917L648.661 201.787L652.081 205.287V205.297L653.281 212.757Z" fill="white"></path><path d="M318.629 614.717L311.27 628.106L318.669 632.347L321.419 630.146L333.36 641.137C333.36 641.137 337.62 644.077 348.06 644.077C358.5 644.077 360.56 642.577 360.56 642.577C360.56 642.577 360.56 627.217 347.75 627.917C334.95 628.627 334.06 621.337 334.06 621.337L318.629 614.717Z" fill="#171717"></path><path d="M400.101 622.757L398.9 642.557H407.861V635.127L420.031 642.557L450.111 642.477C450.111 642.477 450.111 621.986 436.591 623.066C423.061 624.136 417.611 623.066 417.611 623.066L415.47 620.207L400.101 622.757Z" fill="#171717"></path><path d="M709.51 613.728L710.8 633.518H701.83V626.038L689.76 633.538L659.67 633.618C659.67 633.618 659.67 613.128 673.11 614.138C686.54 615.158 692.09 614.138 692.09 614.138L694.2 611.277L709.51 613.728Z" fill="#171717"></path><path d="M611.459 613.978L612.739 633.748H603.779V626.268L591.619 633.848L561.539 633.928C561.539 633.928 561.539 613.438 574.979 614.448C588.409 615.458 593.959 614.448 593.959 614.448L596.069 611.578L611.459 613.978Z" fill="#171717"></path><path d="M318.629 614.717L311.27 628.106L318.669 632.347L321.419 630.146L333.36 641.137C333.36 641.137 337.62 644.077 348.06 644.077C358.5 644.077 360.56 642.577 360.56 642.577C360.56 642.577 360.56 627.217 347.75 627.917C334.95 628.627 334.06 621.337 334.06 621.337L318.629 614.717Z" fill="url(#paint20_linear)"></path><path d="M400.101 622.757L398.9 642.557H407.861V635.127L420.031 642.557L450.111 642.477C450.111 642.477 450.111 621.986 436.591 623.066C423.061 624.136 417.611 623.066 417.611 623.066L415.47 620.207L400.101 622.757Z" fill="url(#paint21_linear)"></path><path d="M709.51 613.728L710.8 633.518H701.83V626.038L689.76 633.538L659.67 633.618C659.67 633.618 659.67 613.128 673.11 614.138C686.54 615.158 692.09 614.138 692.09 614.138L694.2 611.277L709.51 613.728Z" fill="url(#paint22_linear)"></path><path d="M611.459 613.978L612.739 633.748H603.779V626.268L591.619 633.848L561.539 633.928C561.539 633.928 561.539 613.438 574.979 614.448C588.409 615.458 593.959 614.448 593.959 614.448L596.069 611.578L611.459 613.978Z" fill="url(#paint23_linear)"></path><defs><linearGradient id="paint0_linear" x1="367.74" y1="292.496" x2="232.54" y2="339.366" gradientUnits="userSpaceOnUse"><stop stop-opacity="0"></stop><stop offset="0.91" stop-opacity="0.8"></stop><stop offset="1"></stop></linearGradient><linearGradient id="paint1_linear" x1="33051.2" y1="28728.5" x2="36754.8" y2="27320.3" gradientUnits="userSpaceOnUse"><stop stop-opacity="0"></stop><stop offset="0.91" stop-opacity="0.8"></stop><stop offset="1"></stop></linearGradient><linearGradient id="paint2_linear" x1="621.6" y1="211.416" x2="648.99" y2="211.416" gradientUnits="userSpaceOnUse"><stop stop-color="#ECC4D7"></stop><stop offset="0.42" stop-color="#EFD4D1"></stop><stop offset="1" stop-color="#F2EAC9"></stop></linearGradient><linearGradient id="paint3_linear" x1="11867.9" y1="14700.5" x2="10523.7" y2="16278.7" gradientUnits="userSpaceOnUse"><stop stop-color="#ECC4D7"></stop><stop offset="0.42" stop-color="#EFD4D1"></stop><stop offset="1" stop-color="#F2EAC9"></stop></linearGradient><linearGradient id="paint4_linear" x1="27719.1" y1="32062.4" x2="30346.7" y2="32062.4" gradientUnits="userSpaceOnUse"><stop stop-color="#ECC4D7"></stop><stop offset="0.42" stop-color="#EFD4D1"></stop><stop offset="1" stop-color="#F2EAC9"></stop></linearGradient><linearGradient id="paint5_linear" x1="17954.7" y1="18633.5" x2="18884.5" y2="18109.9" gradientUnits="userSpaceOnUse"><stop stop-color="#ECC4D7"></stop><stop offset="0.42" stop-color="#EFD4D1"></stop><stop offset="1" stop-color="#F2EAC9"></stop></linearGradient><linearGradient id="paint6_linear" x1="14165.9" y1="26252" x2="21078.5" y2="32994.3" gradientUnits="userSpaceOnUse"><stop stop-opacity="0"></stop><stop offset="0.91" stop-opacity="0.8"></stop><stop offset="1"></stop></linearGradient><linearGradient id="paint7_linear" x1="20212.8" y1="40179.6" x2="21030.9" y2="40353.4" gradientUnits="userSpaceOnUse"><stop stop-color="#ECC4D7"></stop><stop offset="0.42" stop-color="#EFD4D1"></stop><stop offset="1" stop-color="#F2EAC9"></stop></linearGradient><linearGradient id="paint8_linear" x1="15976.6" y1="9591.22" x2="15786.1" y2="10621.1" gradientUnits="userSpaceOnUse"><stop stop-color="#ECC4D7"></stop><stop offset="0.42" stop-color="#EFD4D1"></stop><stop offset="1" stop-color="#F2EAC9"></stop></linearGradient><linearGradient id="paint9_linear" x1="10395" y1="5944.67" x2="10373.5" y2="6145.08" gradientUnits="userSpaceOnUse"><stop stop-color="#ECC4D7"></stop><stop offset="0.42" stop-color="#EFD4D1"></stop><stop offset="1" stop-color="#F2EAC9"></stop></linearGradient><linearGradient id="paint10_linear" x1="19223.9" y1="19147.2" x2="20244.4" y2="19147.2" gradientUnits="userSpaceOnUse"><stop stop-color="#ECC4D7"></stop><stop offset="0.42" stop-color="#EFD4D1"></stop><stop offset="1" stop-color="#F2EAC9"></stop></linearGradient><linearGradient id="paint11_linear" x1="18497" y1="-34301.7" x2="18120.9" y2="-8809.52" gradientUnits="userSpaceOnUse"><stop stop-opacity="0"></stop><stop offset="0.91" stop-opacity="0.8"></stop><stop offset="1"></stop></linearGradient><linearGradient id="paint12_linear" x1="7076.75" y1="32018.7" x2="6238.53" y2="8724.21" gradientUnits="userSpaceOnUse"><stop stop-opacity="0"></stop><stop offset="0.91" stop-opacity="0.8"></stop><stop offset="1"></stop></linearGradient><linearGradient id="paint13_linear" x1="384.82" y1="194.537" x2="378.81" y2="249.097" gradientUnits="userSpaceOnUse"><stop stop-opacity="0"></stop><stop offset="0.44" stop-opacity="0.35"></stop><stop offset="0.91" stop-opacity="0.8"></stop><stop offset="1"></stop></linearGradient><linearGradient id="paint14_linear" x1="4177.26" y1="17315.6" x2="4846.53" y2="17202.2" gradientUnits="userSpaceOnUse"><stop stop-opacity="0"></stop><stop offset="0.91" stop-opacity="0.8"></stop><stop offset="1"></stop></linearGradient><linearGradient id="paint15_linear" x1="5665.75" y1="14896.1" x2="5188" y2="14890.8" gradientUnits="userSpaceOnUse"><stop stop-opacity="0"></stop><stop offset="0.91" stop-opacity="0.8"></stop><stop offset="1"></stop></linearGradient><linearGradient id="paint16_linear" x1="195.079" y1="341.307" x2="108.899" y2="403.687" gradientUnits="userSpaceOnUse"><stop stop-color="white" stop-opacity="0"></stop><stop offset="1" stop-color="#3F3D56"></stop></linearGradient><linearGradient id="paint17_linear" x1="31172.7" y1="20375.6" x2="25004.6" y2="46978.8" gradientUnits="userSpaceOnUse"><stop stop-opacity="0"></stop><stop offset="0.91" stop-opacity="0.8"></stop><stop offset="1"></stop></linearGradient><linearGradient id="paint18_linear" x1="-156.117" y1="437.669" x2="489.058" y2="695.756" gradientUnits="userSpaceOnUse"><stop offset="0.17" stop-color="#00272E"></stop><stop offset="1" stop-color="#69B9EB" stop-opacity="0"></stop></linearGradient><linearGradient id="paint19_linear" x1="340.801" y1="379.188" x2="341.311" y2="379.188" gradientUnits="userSpaceOnUse"><stop stop-color="#68E1FD"></stop><stop offset="1" stop-color="#69B9EB"></stop></linearGradient><linearGradient id="paint20_linear" x1="14529.2" y1="23358.9" x2="12980.1" y2="24507" gradientUnits="userSpaceOnUse"><stop stop-opacity="0"></stop><stop offset="0.91" stop-opacity="0.8"></stop><stop offset="1"></stop></linearGradient><linearGradient id="paint21_linear" x1="18481.3" y1="17816.1" x2="17694.5" y2="19024.4" gradientUnits="userSpaceOnUse"><stop stop-opacity="0"></stop><stop offset="0.91" stop-opacity="0.8"></stop><stop offset="1"></stop></linearGradient><linearGradient id="paint22_linear" x1="27153.5" y1="17692.4" x2="27729.4" y2="18689.3" gradientUnits="userSpaceOnUse"><stop stop-opacity="0"></stop><stop offset="0.91" stop-opacity="0.8"></stop><stop offset="1"></stop></linearGradient><linearGradient id="paint23_linear" x1="22602.5" y1="17661.6" x2="24131.7" y2="19436.9" gradientUnits="userSpaceOnUse"><stop stop-opacity="0"></stop><stop offset="0.91" stop-opacity="0.8"></stop><stop offset="1"></stop></linearGradient></defs></svg> 