<svg width="403" height="112" viewBox="0 0 403 112" fill="none" xmlns="http://www.w3.org/2000/svg">
<path d="M12.5734 31.9102L20.5525 39.8892L7.99262 52.4762L0 44.4836L12.5734 31.9102Z" fill="#1F324B"/>
<path d="M0.378367 98.9363L39.9876 59.327L52.5611 71.9004L12.9518 111.51L0.378367 98.9363Z" fill="#1F324B"/>
<path d="M12.5734 0L52.5125 39.9391L39.9391 52.5125L0 12.5734L12.5734 0Z" fill="#1F324B"/>
<path d="M0.378345 67.0262L39.9876 27.4169L52.561 39.9903L12.9518 79.5996L0.378345 67.0262Z" fill="#1F324B"/>
<path d="M83.6651 83.3296H106.992C112.379 83.3296 116.377 81.8549 118.985 78.9055C121.617 75.9317 122.934 72.0926 122.934 67.3882C122.934 64.8532 122.312 62.5253 121.069 60.4047C119.85 58.2597 118.01 56.6753 115.548 55.6515C117.108 54.7009 118.327 53.3602 119.204 51.6296C120.082 49.8989 120.52 47.8392 120.52 45.4505C120.52 43.1348 119.984 40.8435 118.912 38.5766C117.839 36.3098 116.145 34.4329 113.829 32.946C111.514 31.4347 108.479 30.6791 104.725 30.6791H83.6651V83.3296ZM93.7564 51.2274V39.966H104.579C106.48 39.966 107.931 40.5145 108.93 41.6114C109.929 42.7083 110.429 44.0611 110.429 45.6698C110.429 47.5955 109.868 49.0093 108.747 49.9111C107.65 50.7886 106.261 51.2274 104.579 51.2274H93.7564ZM93.7564 73.9695V60.5144H105.968C108.284 60.5144 110.015 61.1359 111.16 62.3791C112.33 63.5978 112.915 65.1457 112.915 67.0226C112.915 69.1432 112.257 70.8373 110.941 72.1048C109.649 73.3479 107.992 73.9695 105.968 73.9695H93.7564ZM130.226 83.3296H140.244V63.1469C140.244 58.5643 142.048 55.4443 145.655 53.7868C146.825 53.2262 148.129 52.8971 149.567 52.7996C151.03 52.6777 152.31 52.7874 153.406 53.1287V43.8417C151.627 43.6223 149.848 43.6711 148.068 43.988C146.289 44.2805 144.68 44.8655 143.242 45.743C142.316 46.2792 141.499 46.9252 140.792 47.6808C140.11 48.4364 139.513 49.2774 139.001 50.2036V43.8417H130.226V83.3296ZM177.417 84.4265C181.366 84.4265 184.839 83.549 187.837 81.7939C190.86 80.0146 193.212 77.5648 194.894 74.4448C196.6 71.3004 197.453 67.6807 197.453 63.5856C197.453 59.515 196.612 55.9196 194.93 52.7996C193.249 49.6552 190.896 47.1933 187.874 45.4139C184.876 43.6345 181.39 42.7448 177.417 42.7448C173.517 42.7448 170.068 43.6223 167.07 45.3773C164.071 47.1324 161.719 49.5821 160.013 52.7265C158.307 55.8465 157.453 59.4662 157.453 63.5856C157.453 67.6563 158.282 71.2638 159.94 74.4083C161.622 77.5283 163.962 79.978 166.96 81.7574C169.958 83.5368 173.444 84.4265 177.417 84.4265ZM177.417 75.1395C174.321 75.1395 171.969 74.1036 170.36 72.0317C168.776 69.9354 167.984 67.1201 167.984 63.5856C167.984 60.1487 168.739 57.37 170.25 55.2493C171.786 53.1043 174.175 52.0318 177.417 52.0318C180.561 52.0318 182.926 53.0799 184.51 55.1762C186.119 57.2725 186.923 60.0756 186.923 63.5856C186.923 66.9738 186.131 69.7526 184.547 71.922C182.987 74.067 180.61 75.1395 177.417 75.1395ZM205.421 83.3296H215.585V64.3169L229.26 83.3296H242.203L226.993 63.5856L241.252 43.8417H228.967L215.585 62.8544V30.6791H205.494L205.421 83.3296ZM263.482 84.4265C267.284 84.4265 270.782 83.4271 273.975 81.4283C277.193 79.4296 279.545 76.6264 281.032 73.0189L271.087 70.167C269.576 73.482 266.846 75.1395 262.897 75.1395C260.191 75.1395 258.058 74.3839 256.498 72.8726C254.963 71.3613 254.012 69.192 253.646 66.3644H281.361C281.775 61.5869 281.288 57.4309 279.899 53.8965C278.509 50.3621 276.364 47.6199 273.463 45.6698C270.563 43.7198 267.041 42.7448 262.897 42.7448C258.997 42.7448 255.548 43.6345 252.549 45.4139C249.551 47.1689 247.199 49.643 245.493 52.8362C243.787 56.0293 242.933 59.7831 242.933 64.0975C242.933 68.0463 243.799 71.5563 245.529 74.6276C247.284 77.6745 249.698 80.0755 252.769 81.8305C255.865 83.5612 259.435 84.4265 263.482 84.4265ZM263.336 51.3737C265.724 51.3737 267.552 51.9708 268.82 53.1652C270.112 54.3596 270.941 56.2974 271.306 58.9787H253.902C254.95 53.9087 258.095 51.3737 263.336 51.3737ZM289.617 83.3296H299.635V63.1469C299.635 58.5643 301.439 55.4443 305.046 53.7868C306.216 53.2262 307.52 52.8971 308.959 52.7996C310.421 52.6777 311.701 52.7874 312.798 53.1287V43.8417C311.018 43.6223 309.239 43.6711 307.459 43.988C305.68 44.2805 304.071 44.8655 302.633 45.743C301.707 46.2792 300.89 46.9252 300.183 47.6808C299.501 48.4364 298.904 49.2774 298.392 50.2036V43.8417H289.617V83.3296ZM337.393 84.4265C341.196 84.4265 344.693 83.4271 347.887 81.4283C351.104 79.4296 353.456 76.6264 354.943 73.0189L344.998 70.167C343.487 73.482 340.757 75.1395 336.808 75.1395C334.102 75.1395 331.97 74.3839 330.41 72.8726C328.874 71.3613 327.923 69.192 327.558 66.3644H355.272C355.687 61.5869 355.199 57.4309 353.81 53.8965C352.42 50.3621 350.275 47.6199 347.375 45.6698C344.474 43.7198 340.952 42.7448 336.808 42.7448C332.908 42.7448 329.459 43.6345 326.461 45.4139C323.463 47.1689 321.11 49.643 319.404 52.8362C317.698 56.0293 316.845 59.7831 316.845 64.0975C316.845 68.0463 317.71 71.5563 319.441 74.6276C321.196 77.6745 323.609 80.0755 326.68 81.8305C329.776 83.5612 333.347 84.4265 337.393 84.4265ZM337.247 51.3737C339.636 51.3737 341.464 51.9708 342.731 53.1652C344.023 54.3596 344.852 56.2974 345.217 58.9787H327.814C328.862 53.9087 332.006 51.3737 337.247 51.3737ZM381.883 84.4265C385.685 84.4265 389.183 83.4271 392.376 81.4283C395.594 79.4296 397.946 76.6264 399.433 73.0189L389.488 70.167C387.976 73.482 385.246 75.1395 381.298 75.1395C378.592 75.1395 376.459 74.3839 374.899 72.8726C373.363 71.3613 372.413 69.192 372.047 66.3644H399.762C400.176 61.5869 399.689 57.4309 398.299 53.8965C396.91 50.3621 394.765 47.6199 391.864 45.6698C388.964 43.7198 385.441 42.7448 381.298 42.7448C377.398 42.7448 373.948 43.6345 370.95 45.4139C367.952 47.1689 365.6 49.643 363.894 52.8362C362.187 56.0293 361.334 59.7831 361.334 64.0975C361.334 68.0463 362.2 71.5563 363.93 74.6276C365.685 77.6745 368.098 80.0755 371.17 81.8305C374.265 83.5612 377.836 84.4265 381.883 84.4265ZM381.736 51.3737C384.125 51.3737 385.953 51.9708 387.221 53.1652C388.513 54.3596 389.341 56.2974 389.707 58.9787H372.303C373.351 53.9087 376.496 51.3737 381.736 51.3737Z" fill="#1F324B"/>
</svg>
