<svg xmlns="http://www.w3.org/2000/svg" fill="none" viewBox="0 0 418 100">
  <path fill="#000"
    d="M31.866 40.148c-2.311-2.865-5.344-4.298-9.12-4.298-1.328 0-2.625.314-3.88.941-1.255.628-1.882 1.716-1.882 3.253 0 1.255.648 2.186 1.935 2.782 1.296.596 2.938 1.119 4.925 1.569 1.987.46 4.12.94 6.39 1.464a23.9 23.9 0 0 1 6.39 2.468 14.368 14.368 0 0 1 4.926 4.56c1.297 1.924 1.935 4.486 1.935 7.707s-.722 5.992-2.155 8.126a16.369 16.369 0 0 1-5.5 5.135c-2.239 1.297-4.749 2.196-7.551 2.73a44.924 44.924 0 0 1-8.283.784c-3.566 0-7.164-.513-10.793-1.517-3.64-1.014-6.714-2.813-9.224-5.396l9.538-10.584c1.464 1.82 3.095 3.2 4.873 4.142 1.778.941 3.86 1.412 6.233 1.412 1.82 0 3.462-.262 4.926-.785s2.196-1.485 2.196-2.886c0-1.328-.648-2.322-1.934-2.991-1.297-.659-2.94-1.224-4.926-1.673-1.987-.45-4.12-.942-6.39-1.465a26.381 26.381 0 0 1-6.39-2.353c-1.987-1.045-3.64-2.53-4.926-4.455-1.297-1.924-1.934-4.486-1.934-7.707 0-3.002.606-5.595 1.83-7.76a16.216 16.216 0 0 1 4.82-5.344c1.988-1.402 4.278-2.427 6.872-3.096a31.722 31.722 0 0 1 7.864-.993c3.357 0 6.746.491 10.166 1.464 3.42.983 6.327 2.73 8.7 5.24l-9.642 9.537.01-.01ZM82.912 41.613c-.774-1.12-1.852-2.04-3.253-2.782a9.572 9.572 0 0 0-4.507-1.098c-3.985 0-7.08 1.192-9.277 3.566-2.196 2.374-3.304 5.49-3.304 9.328 0 3.839 1.098 6.955 3.304 9.33 2.197 2.373 5.292 3.565 9.277 3.565 1.746 0 3.252-.387 4.507-1.15a13.548 13.548 0 0 0 3.252-2.73L93.287 70.54c-2.447 2.52-5.334 4.277-8.649 5.291-3.315 1.015-6.484 1.517-9.485 1.517-3.912 0-7.603-.628-11.055-1.883-3.461-1.255-6.463-3.053-9.014-5.396-2.552-2.343-4.56-5.156-6.024-8.44-1.464-3.283-2.196-6.954-2.196-11.002 0-4.047.732-7.718 2.196-11.001 1.464-3.284 3.472-6.097 6.024-8.44 2.551-2.343 5.553-4.141 9.014-5.396 3.462-1.255 7.143-1.883 11.055-1.883 3.001 0 6.17.513 9.485 1.517 3.315 1.014 6.202 2.781 8.649 5.291L82.912 41.613ZM95.91 25.162h15.719v8.178h.21c1.673-3.148 3.67-5.5 5.971-7.08 2.311-1.569 5.208-2.363 8.701-2.363.91 0 1.82.031 2.73.104.91.073 1.746.21 2.52.419v14.358a24.738 24.738 0 0 0-3.305-.784 21.065 21.065 0 0 0-3.409-.261c-3.001 0-5.386.418-7.132 1.255-1.747.836-3.096 2.008-4.037 3.514-.941 1.505-1.558 3.304-1.83 5.396-.283 2.091-.419 4.403-.419 6.923v21.282H95.911v-50.94ZM134.386 9.12c0-2.521.889-4.665 2.677-6.443C138.852.9 140.996 0 143.506 0c2.509 0 4.664.889 6.442 2.677 1.778 1.789 2.677 3.932 2.677 6.442 0 2.51-.889 4.665-2.677 6.443-1.778 1.778-3.933 2.677-6.442 2.677-2.51 0-4.665-.89-6.443-2.677-1.778-1.778-2.677-3.933-2.677-6.443Zm1.255 16.042h15.729v50.941h-15.729v-50.94ZM161.012 25.162h14.464v6.714h.209c.628-.91 1.454-1.83 2.468-2.782 1.015-.94 2.196-1.799 3.566-2.572a21.873 21.873 0 0 1 4.455-1.883c1.611-.491 3.316-.732 5.135-.732 3.776 0 7.196.648 10.27 1.935 3.075 1.297 5.71 3.106 7.917 5.449 2.196 2.342 3.89 5.124 5.083 8.335 1.192 3.21 1.777 6.745 1.777 10.583 0 3.566-.543 6.976-1.621 10.218-1.087 3.252-2.625 6.128-4.612 8.649a22.331 22.331 0 0 1-7.289 6.023c-2.865 1.506-6.118 2.249-9.747 2.249-3.284 0-6.337-.513-9.171-1.517-2.835-1.014-5.156-2.74-6.976-5.187h-.209V99.99h-15.719V25.162Zm14.464 25.476c0 3.849 1.098 6.955 3.305 9.329 2.196 2.373 5.291 3.566 9.276 3.566 3.984 0 7.08-1.193 9.276-3.566 2.196-2.374 3.305-5.48 3.305-9.33 0-3.848-1.098-6.954-3.305-9.328-2.196-2.374-5.292-3.566-9.276-3.566-3.985 0-7.08 1.192-9.276 3.566-2.197 2.374-3.305 5.49-3.305 9.329ZM257.237 37.733h-13.836v16.984c0 1.401.073 2.677.209 3.827s.45 2.144.941 2.991c.492.837 1.245 1.485 2.259 1.935 1.015.46 2.353.68 4.037.68.837 0 1.935-.084 3.305-.262 1.359-.177 2.395-.575 3.095-1.202V75.79a23.854 23.854 0 0 1-5.448 1.254c-1.883.21-3.744.314-5.553.314-2.657 0-5.104-.282-7.342-.836-2.238-.555-4.194-1.454-5.867-2.678-1.673-1.223-2.991-2.813-3.932-4.768-.941-1.956-1.412-4.33-1.412-7.133v-24.21h-10.061V25.152h10.061V10.06h15.729v15.09h13.836v12.582h-.021ZM261.117 9.12c0-2.521.889-4.665 2.677-6.443C265.572.9 267.726 0 270.236 0c2.51 0 4.665.889 6.443 2.677 1.777 1.778 2.677 3.932 2.677 6.442 0 2.51-.889 4.665-2.677 6.443-1.778 1.778-3.933 2.677-6.443 2.677s-4.664-.89-6.442-2.677c-1.778-1.778-2.677-3.933-2.677-6.443Zm1.255 16.042h15.729v50.941h-15.729v-50.94ZM281.029 25.162h16.984l12.895 34.595h.209l11.954-34.595h15.833l-20.132 50.941h-16.67l-21.073-50.94ZM389.73 67.298c-2.52 3.21-5.699 5.7-9.538 7.446-3.848 1.746-7.822 2.625-11.953 2.625-4.131 0-7.603-.628-11.065-1.883-3.461-1.255-6.463-3.053-9.015-5.396-2.551-2.343-4.559-5.156-6.023-8.44-1.465-3.284-2.207-6.954-2.207-11.002 0-4.047.732-7.718 2.207-11.002 1.464-3.283 3.472-6.096 6.023-8.44 2.552-2.342 5.554-4.14 9.015-5.395 3.462-1.256 7.143-1.883 11.065-1.883 3.629 0 6.934.627 9.904 1.883 2.97 1.255 5.49 3.053 7.55 5.396 2.061 2.343 3.65 5.156 4.769 8.44 1.119 3.283 1.674 6.954 1.674 11.001v4.926h-36.478c.627 3.002 1.987 5.397 4.089 7.185 2.092 1.778 4.685 2.677 7.76 2.677 2.583 0 4.769-.575 6.547-1.726 1.777-1.15 3.336-2.635 4.664-4.455l11.002 8.074.01-.031Zm-13.313-22.433c.073-2.656-.805-4.926-2.625-6.819-1.82-1.882-4.162-2.834-7.017-2.834-1.747 0-3.284.283-4.612.837-1.328.565-2.468 1.276-3.41 2.144a9.587 9.587 0 0 0-2.206 3.043 9.9 9.9 0 0 0-.889 3.619h20.759v.01Z" />
  <path fill="#4448F5"
    d="M398.431 67.088a9.8 9.8 0 0 1 .732-3.775 9.374 9.374 0 0 1 2.05-3.096 9.231 9.231 0 0 1 3.096-2.039 9.75 9.75 0 0 1 3.775-.732 9.79 9.79 0 0 1 3.775.732 9.484 9.484 0 0 1 3.096 2.04 9.532 9.532 0 0 1 2.05 3.095 9.8 9.8 0 0 1 .732 3.775 9.8 9.8 0 0 1-.732 3.776 9.358 9.358 0 0 1-2.05 3.095 9.162 9.162 0 0 1-3.096 2.04 9.788 9.788 0 0 1-3.775.732 9.788 9.788 0 0 1-3.775-.732 9.505 9.505 0 0 1-3.096-2.04c-.878-.868-1.558-1.903-2.05-3.095a9.8 9.8 0 0 1-.732-3.776Z" />
</svg>
